<svg width="91" height="157" viewBox="0 0 91 157" fill="none" xmlns="http://www.w3.org/2000/svg">
<path fill-rule="evenodd" clip-rule="evenodd" d="M45.5 0.5C48.5375 0.5 51 2.96243 51 6V112.861C57.5892 101.947 67.746 91.7874 83.0127 85.8716C85.845 84.774 89.0308 86.1804 90.1284 89.0127C91.2259 91.8451 89.8196 95.0309 86.9872 96.1284C58.7082 107.087 51.1642 136.205 51 150.522V151.5L40.0003 151.561C39.9966 151.231 39.9965 150.892 40 150.545V6C40 2.96243 42.4624 0.5 45.5 0.5Z" fill="black"/>
<path fill-rule="evenodd" clip-rule="evenodd" d="M45.5 0.5C42.4625 0.5 40 2.96243 40 6V112.861C33.4108 101.947 23.254 91.7874 7.98731 85.8716C5.15496 84.774 1.96915 86.1804 0.871613 89.0127C-0.225922 91.8451 1.18042 95.0309 4.01278 96.1284C32.2918 107.087 39.8358 136.205 40 150.522V151.5L50.9997 151.561C51.0034 151.231 51.0035 150.892 51 150.545V6C51 2.96243 48.5376 0.5 45.5 0.5Z" fill="black"/>
<path d="M51 150.5C51 154.642 49.0899 157 45.5 157C41.9101 157 40 154.642 40 150.5C40 146.358 41.9101 142 45.5 142C49.0899 142 51 146.358 51 150.5Z" fill="black"/>
</svg>
